<svg xmlns="http://www.w3.org/2000/svg" width="24.511" height="15.607" viewBox="0 0 24.511 15.607">
  <g id="eye-view" transform="translate(0.255 0.25)">
    <g id="Group_86" data-name="Group 86" transform="translate(0 0)">
      <path id="Path_160" data-name="Path 160" d="M2.791,100.871A12.852,12.852,0,0,0,12,104.588a12.91,12.91,0,0,0,9.208-3.717,13.434,13.434,0,0,0,2.717-3.745.809.809,0,0,0,0-.676,11.483,11.483,0,0,0-2.647-3.52,13.416,13.416,0,0,0-9.363-3.449,13.121,13.121,0,0,0-9.278,3.464A10.883,10.883,0,0,0,.06,96.478a.8.8,0,0,0,.014.648A13.1,13.1,0,0,0,2.791,100.871Zm9.081-9.644a4.111,4.111,0,1,1-4.111,4.111A4.116,4.116,0,0,1,11.873,91.227ZM7.1,92.043a5.751,5.751,0,0,0-1.028,3.295,5.8,5.8,0,1,0,10.545-3.323A10.7,10.7,0,0,1,22.179,96.8a12.751,12.751,0,0,1-2.225,2.928,11.03,11.03,0,0,1-7.969,3.2,11.1,11.1,0,0,1-7.969-3.21,12.8,12.8,0,0,1-2.239-2.943A10.318,10.318,0,0,1,7.1,92.043Z" transform="translate(0.002 -89.481)" fill="#1a1a1a" stroke="#fff" stroke-width="0.5"/>
    </g>
  </g>
</svg>
